<svg width="500" height="102" viewBox="0 0 500 102" fill="none" xmlns="http://www.w3.org/2000/svg">
<g clip-path="url(#clip0_25_456)">
<path d="M58.76 37.7029C65.88 37.7029 71.65 43.4749 71.65 50.5974C71.65 57.7198 65.88 63.4918 58.76 63.4918C51.64 63.4918 45.87 57.7198 45.87 50.5974C45.87 43.4749 51.64 37.7029 58.76 37.7029ZM34.56 14.7351C34.56 19.6267 38.53 23.5981 43.42 23.5981C48.31 23.5981 52.28 19.6267 52.28 14.7351C52.28 9.84338 48.31 5.87201 43.42 5.87201C38.53 5.87201 34.56 9.84338 34.56 14.7351ZM47.82 76.9864C47.82 81.608 51.56 85.3493 56.18 85.3493C60.8 85.3493 64.54 81.608 64.54 76.9864C64.54 72.3648 60.8 68.6236 56.18 68.6236C51.56 68.6236 47.82 72.3648 47.82 76.9864ZM0 41.3342C0 52.8882 9.37 62.2614 20.92 62.2614C32.47 62.2614 41.84 52.8882 41.84 41.3342C41.84 29.7802 32.47 20.407 20.92 20.407C9.37 20.407 0 29.7702 0 41.3342ZM57.19 18.3363C57.19 28.4598 65.4 36.6726 75.52 36.6726C85.64 36.6726 93.85 28.4598 93.85 18.3363C93.85 8.21282 85.64 0 75.52 0C65.4 0 57.19 8.21282 57.19 18.3363ZM69.66 74.8057C69.66 89.8008 81.82 101.965 96.81 101.965C111.8 101.965 123.96 89.8008 123.96 74.8057C123.96 59.8105 111.8 47.6464 96.81 47.6464C81.82 47.6464 69.66 59.8105 69.66 74.8057ZM35.88 65.9126C35.88 68.6035 38.06 70.7743 40.74 70.7743C43.43 70.7743 45.6 68.5935 45.6 65.9126C45.6 63.2317 43.42 61.051 40.74 61.051C38.05 61.051 35.88 63.2317 35.88 65.9126ZM45.33 29.5601C45.33 31.8609 47.19 33.7216 49.49 33.7216C51.79 33.7216 53.65 31.8609 53.65 29.5601C53.65 27.2594 51.79 25.3987 49.49 25.3987C47.19 25.3987 45.33 27.2594 45.33 29.5601ZM75.43 44.5253C75.43 46.3759 76.93 47.8864 78.79 47.8864C80.65 47.8864 82.15 46.3859 82.15 44.5253C82.15 42.6646 80.65 41.1641 78.79 41.1641C76.93 41.1641 75.43 42.6646 75.43 44.5253ZM35.88 80.0075C35.88 81.9381 37.45 83.5087 39.38 83.5087C41.31 83.5087 42.88 81.9381 42.88 80.0075C42.88 78.0768 41.31 76.5063 39.38 76.5063C37.45 76.5063 35.88 78.0768 35.88 80.0075Z" fill="#152661"/>
<path d="M177.14 35.6493H161.31V42.3816H175.74V44.9525C175.74 46.8631 175.13 48.5837 173.93 50.0842C172.73 51.5948 171.11 52.7852 169.07 53.6655C167.04 54.5358 164.73 54.9759 162.17 54.9759C158.87 54.9759 155.98 54.2157 153.49 52.6851C151 51.1646 149.06 49.0239 147.65 46.2729C146.24 43.532 145.54 40.2909 145.54 36.5796C145.54 32.8683 146.24 29.7073 147.62 26.9763C149 24.2454 150.95 22.1547 153.46 20.6842C155.97 19.2136 158.91 18.4834 162.29 18.4834C165.87 18.4834 168.79 19.2837 171.03 20.8642C173.26 22.4548 174.66 24.7155 175.18 27.6465H184.04C183.47 24.1453 182.21 21.1543 180.28 18.6935C178.34 16.2326 175.85 14.332 172.79 13.0115C169.73 11.6911 166.23 11.0308 162.28 11.0308C157.23 11.0308 152.8 12.0912 149.01 14.2019C145.22 16.3127 142.27 19.3037 140.15 23.125C138.03 26.9563 136.97 31.4178 136.97 36.5096C136.97 41.6013 137.99 46.0629 140.03 49.8942C142.06 53.7255 144.9 56.6965 148.52 58.8172C152.15 60.938 156.34 61.9883 161.11 61.9883C164.61 61.9883 167.66 61.3481 170.24 60.0677C172.83 58.7772 174.67 57.0066 175.77 54.7158H176.07V61.9883H184.02V42.1815C184.02 40.0608 183.43 38.4402 182.24 37.3199C181.06 36.1995 179.35 35.6393 177.11 35.6393L177.14 35.6493ZM259.78 43.502C258.07 41.8114 255.36 40.611 251.65 39.9208L243.47 38.3402C241.83 38.0101 240.64 37.5299 239.89 36.8997C239.14 36.2695 238.77 35.4492 238.77 34.4289C238.77 33.0484 239.35 31.988 240.54 31.2578C241.72 30.5175 243.41 30.1574 245.62 30.1574C248.1 30.1574 250.01 30.5976 251.33 31.5079C252.65 32.4082 253.53 33.7887 253.99 35.6593H262C261.67 31.948 260.11 29.057 257.32 26.9763C254.53 24.9056 250.77 23.8652 246.04 23.8652C241.31 23.8652 237.67 24.8756 234.98 26.8963C232.29 28.907 230.95 31.6379 230.95 35.0591C230.95 40.3909 234.48 43.7321 241.52 45.0825L249.65 46.6131C251.44 46.9432 252.72 47.4533 253.5 48.1336C254.28 48.8338 254.66 49.7841 254.66 51.0046C254.66 54.0256 252.14 55.5361 247.08 55.5361C244.14 55.5361 241.9 55.0359 240.35 54.0656C238.8 53.0853 237.89 51.6048 237.61 49.6041H229.48C229.77 53.5154 231.42 56.5665 234.43 58.7472C237.45 60.928 241.56 62.0183 246.78 62.0183C252 62.0183 255.64 60.988 258.33 58.9273C261.02 56.8666 262.36 54.0056 262.36 50.3343C262.36 47.4833 261.5 45.2126 259.79 43.522L259.78 43.502ZM225.03 41.7014C225.03 38.0301 224.3 34.859 222.86 32.1981C221.41 29.5272 219.37 27.4665 216.72 26.016C214.07 24.5755 210.91 23.8452 207.25 23.8452C203.59 23.8452 200.1 24.6255 197.28 26.166C194.47 27.7166 192.3 29.9073 190.78 32.7383C189.25 35.5693 188.49 38.9304 188.49 42.8017C188.49 46.6731 189.26 50.0542 190.81 52.9452C192.36 55.8362 194.57 58.067 197.44 59.6375C200.31 61.2081 203.68 61.9883 207.55 61.9883C212.12 61.9883 215.91 60.918 218.94 58.7772C221.97 56.6365 223.94 53.6555 224.84 49.8242H216.41C215.83 51.6248 214.8 52.9652 213.29 53.8555C211.79 54.7558 209.85 55.206 207.49 55.206C204.27 55.206 201.7 54.3057 199.79 52.4851C197.87 50.6744 196.76 48.0936 196.43 44.7524H225.03V41.6914V41.7014ZM204.7 38.9504C197.94 38.9504 196.33 40.9311 196.33 40.9311C196.34 40.2909 196.63 39.0605 196.79 38.4502C196.79 38.4402 196.79 38.4202 196.79 38.4102C196.82 38.3002 196.84 38.2002 196.88 38.0901C197.5 35.8193 198.63 34.0387 200.27 32.7483C202.1 31.2978 204.43 30.5775 207.24 30.5775C210.05 30.5775 212.31 31.2978 214.02 32.7483C215.74 34.1888 216.75 36.2595 217.08 38.9504H204.7ZM196.89 38.0901C196.85 38.1902 196.83 38.3002 196.8 38.4102C196.84 38.2102 196.88 38.0901 196.88 38.0901H196.89ZM291.66 30.2374V24.4354C291.03 24.4755 290.31 24.4955 289.46 24.4955C282.7 24.4955 281.09 26.4761 281.09 26.4761C281.11 25.5958 281.64 23.6352 281.64 23.6352V14.312H273.45V23.7552H266.79V30.2274H273.39V55.086C273.39 57.4068 274.01 59.1374 275.25 60.2777C276.49 61.4181 278.23 61.9883 280.47 61.9883H291.65V55.4461H283.17C282.36 55.4461 281.69 54.7859 281.69 53.9656V30.2274H291.65L291.66 30.2374ZM343.11 37.9701C340.91 35.6893 337.53 34.0988 332.97 33.2085L322.77 31.1277C317.92 30.1474 315.5 27.9667 315.5 24.5855C315.5 22.4248 316.37 20.7642 318.13 19.6038C319.89 18.4434 322.29 17.8632 325.34 17.8632C332.06 17.8632 336.03 20.6341 337.25 26.176H346.05C345.56 21.4144 343.51 17.6831 339.91 15.0222C336.3 12.3513 331.61 11.0208 325.82 11.0208C320.03 11.0208 315.53 12.2913 312.19 14.8421C308.85 17.393 307.18 20.8842 307.18 25.3257C307.18 28.7869 308.3 31.6479 310.57 33.8887C312.83 36.1295 316.18 37.7 320.63 38.6003L330.4 40.551C333.01 41.0812 334.94 41.9314 336.21 43.0918C337.47 44.2522 338.1 45.7728 338.1 47.6434C338.1 50.0842 337.16 51.9249 335.29 53.1453C333.42 54.3757 330.69 54.9759 327.1 54.9759C323.02 54.9759 319.85 54.2057 317.57 52.6551C315.28 51.1046 314.03 48.8638 313.78 45.9328H304.98C305.35 50.9846 307.46 54.9259 311.31 57.7569C315.16 60.5879 320.32 62.0083 326.8 62.0083C333.28 62.0083 337.81 60.6879 341.25 58.067C344.7 55.4361 346.41 51.7648 346.41 47.0332C346.41 43.2919 345.31 40.2709 343.11 37.9901V37.9701ZM416.21 32.7683C414.66 29.9173 412.46 27.7166 409.61 26.166C406.75 24.6155 403.35 23.8452 399.4 23.8452C395.45 23.8452 392.09 24.6255 389.2 26.196C386.31 27.7666 384.08 29.9773 382.51 32.8283C380.94 35.6893 380.16 39.0505 380.16 42.9118C380.16 46.7731 380.95 50.1443 382.54 52.9952C384.12 55.8462 386.36 58.057 389.23 59.6275C392.1 61.1981 395.47 61.9783 399.34 61.9783C403.21 61.9783 406.7 61.2081 409.58 59.6575C412.45 58.107 414.66 55.8962 416.21 53.0253C417.76 50.1543 418.53 46.7831 418.53 42.9118C418.53 39.0405 417.75 35.6093 416.21 32.7683ZM407.38 51.6048C405.49 53.7255 402.81 54.7759 399.34 54.7759C395.87 54.7759 393.25 53.7155 391.33 51.6048C389.41 49.484 388.46 46.593 388.46 42.9218C388.46 39.2505 389.41 36.3095 391.33 34.2088C393.25 32.1181 395.92 31.0677 399.34 31.0677C402.76 31.0677 405.48 32.1081 407.38 34.1788C409.27 36.2595 410.22 39.1705 410.22 42.9218C410.22 46.6731 409.27 49.484 407.38 51.6048ZM450.66 49.244C449.31 52.9252 446.33 54.7759 441.73 54.7759C438.51 54.7759 435.97 53.7355 434.09 51.6648C432.22 49.5841 431.28 46.6731 431.28 42.9218C431.28 39.1705 432.22 36.2595 434.09 34.1788C435.96 32.0981 438.51 31.0677 441.73 31.0677C444.13 31.0677 446.1 31.5779 447.63 32.5882C449 33.5086 450 34.809 450.63 36.4996H459.06C458.11 32.5882 456.18 29.5472 453.27 27.3264C450.21 25.0056 446.37 23.8452 441.72 23.8452C437.93 23.8452 434.63 24.6255 431.82 26.196C429.01 27.7666 426.83 29.9773 425.28 32.8283C423.73 35.6893 422.96 39.0505 422.96 42.9118C422.96 46.7731 423.74 50.1443 425.31 52.9952C426.87 55.8462 429.07 58.057 431.87 59.6275C434.68 61.1981 437.97 61.9783 441.71 61.9783C446.56 61.9783 450.51 60.7779 453.57 58.3771C456.36 56.1763 458.22 53.1253 459.13 49.234H450.64L450.66 49.244ZM375.72 30.2374V24.4354C375.11 24.4755 374.4 24.4955 373.58 24.4955C366.82 24.4955 365.21 26.4761 365.21 26.4761C365.23 25.7259 365.61 24.2154 365.72 23.7552H365.69V14.312H357.5V23.7552H350.84V30.2274H357.44V55.086C357.44 57.4068 358.06 59.1374 359.3 60.2777C360.54 61.4181 362.28 61.9883 364.52 61.9883H375.71V55.4461H367.22C366.41 55.4461 365.74 54.7859 365.74 53.9656V30.2274H375.71L375.72 30.2374ZM482.12 39.9908L498.38 25.3157H488.35L472.15 40.3509H471.91V11.0108H463.6V61.9883H471.91V48.7238L476.37 45.0525L489.81 61.9883H499.71L482.12 39.9808V39.9908Z" fill="#152661"/>
<path d="M240.06 87.1929V74.4985H243.11L247.22 84.1718H247.28L251.4 74.4985H254.44V87.1929H252.26V77.3395H252.2L248.09 87.1929H246.27L242.15 77.3195H242.09V87.1929H240.05H240.06ZM259.95 87.3629C258.87 87.3629 258.03 87.0928 257.4 86.5626C256.78 86.0325 256.47 85.3322 256.47 84.4619C256.47 83.5916 256.78 82.8514 257.41 82.3512C258.04 81.851 258.93 81.6009 260.1 81.6009H263.08V81.2108C263.08 79.9604 262.37 79.3302 260.95 79.3302C259.75 79.3302 259.03 79.7603 258.79 80.6306H256.66C256.84 79.6603 257.3 78.91 258.05 78.3898C258.8 77.8697 259.77 77.6096 260.97 77.6096C262.32 77.6096 263.35 77.9197 264.06 78.5399C264.77 79.1601 265.13 80.0604 265.13 81.2408V85.0521H266.15V87.2029H263.94V85.7124H263.28C262.96 86.2325 262.52 86.6427 261.96 86.9328C261.41 87.2229 260.74 87.3729 259.95 87.3729V87.3629ZM260.27 85.7024C260.8 85.7024 261.28 85.6023 261.71 85.3922C262.14 85.1822 262.48 84.9021 262.72 84.552C262.97 84.2018 263.09 83.8117 263.09 83.3816V83.0815H260.22C259.07 83.0815 258.5 83.5116 258.5 84.3619C258.5 84.782 258.66 85.1021 258.97 85.3422C259.28 85.5823 259.72 85.6924 260.27 85.6924V85.7024ZM269.14 76.6592C268.81 76.6592 268.52 76.5392 268.28 76.3091C268.04 76.079 267.92 75.789 267.92 75.4388C267.92 75.0887 268.04 74.8186 268.27 74.5785C268.5 74.3385 268.79 74.2184 269.14 74.2184C269.49 74.2184 269.76 74.3385 270 74.5685C270.24 74.7986 270.36 75.0887 270.36 75.4388C270.36 75.789 270.24 76.059 270.01 76.2991C269.78 76.5392 269.49 76.6592 269.14 76.6592ZM268.07 87.1929V77.7896H270.2V87.1929H268.07ZM276.47 87.3729C275.13 87.3729 274.08 87.0928 273.3 86.5326C272.53 85.9724 272.1 85.1922 272.03 84.1918H274.11C274.18 84.702 274.42 85.0821 274.82 85.3322C275.22 85.5823 275.79 85.7124 276.54 85.7124C277.84 85.7124 278.48 85.3222 278.48 84.552C278.48 84.2418 278.38 83.9918 278.18 83.8117C277.98 83.6316 277.65 83.5016 277.19 83.4216L275.11 83.0314C273.3 82.6913 272.4 81.831 272.4 80.4606C272.4 79.5803 272.74 78.89 273.43 78.3698C274.12 77.8497 275.06 77.5896 276.27 77.5896C277.48 77.5896 278.45 77.8597 279.16 78.3898C279.87 78.92 280.28 79.6603 280.36 80.6106H278.31C278.2 80.1304 277.97 79.7703 277.63 79.5402C277.29 79.3102 276.8 79.2001 276.17 79.2001C275.61 79.2001 275.17 79.2901 274.87 79.4802C274.57 79.6703 274.42 79.9404 274.42 80.2905C274.42 80.5506 274.52 80.7607 274.71 80.9207C274.9 81.0808 275.21 81.2108 275.63 81.2908L277.73 81.701C278.68 81.881 279.38 82.1811 279.81 82.6213C280.25 83.0514 280.47 83.6416 280.47 84.3719C280.47 85.3122 280.13 86.0425 279.44 86.5727C278.75 87.1028 277.76 87.3629 276.48 87.3629L276.47 87.3729ZM290.99 87.3729C290.03 87.3729 289.19 87.1729 288.47 86.7727C287.75 86.3726 287.19 85.8024 286.79 85.0721C286.39 84.3419 286.19 83.4816 286.19 82.4812C286.19 81.4809 286.39 80.6306 286.79 79.8904C287.19 79.1601 287.75 78.5899 288.47 78.1898C289.19 77.7896 290.04 77.5896 291.01 77.5896C292.2 77.5896 293.19 77.8897 293.97 78.4799C294.75 79.0801 295.26 79.9104 295.49 80.9907H293.34C293.18 80.4806 292.91 80.0904 292.52 79.8303C292.13 79.5703 291.62 79.4402 291.01 79.4402C290.18 79.4402 289.53 79.7103 289.05 80.2405C288.57 80.7707 288.33 81.5209 288.33 82.4812C288.33 83.4416 288.57 84.1918 289.05 84.722C289.53 85.2522 290.18 85.5223 291.01 85.5223C292.31 85.5223 293.1 84.9521 293.39 83.8117H295.54C295.33 84.9521 294.83 85.8324 294.05 86.4426C293.27 87.0628 292.25 87.3629 291.01 87.3629L290.99 87.3729ZM301.29 87.3729C300.3 87.3729 299.43 87.1729 298.7 86.7727C297.96 86.3726 297.39 85.8024 296.98 85.0721C296.57 84.3419 296.37 83.4816 296.37 82.4812C296.37 81.4809 296.57 80.6306 296.97 79.8904C297.37 79.1601 297.94 78.5899 298.69 78.1898C299.43 77.7896 300.3 77.5896 301.31 77.5896C302.32 77.5896 303.2 77.7896 303.93 78.1898C304.66 78.5899 305.23 79.1501 305.62 79.8804C306.02 80.6106 306.21 81.4809 306.21 82.4812C306.21 83.4816 306.01 84.3419 305.62 85.0721C305.22 85.8124 304.66 86.3726 303.92 86.7727C303.18 87.1729 302.31 87.3729 301.3 87.3729H301.29ZM301.29 85.5223C302.18 85.5223 302.86 85.2522 303.35 84.702C303.84 84.1618 304.08 83.4216 304.08 82.4812C304.08 81.5409 303.84 80.7707 303.35 80.2405C302.86 79.7103 302.18 79.4402 301.29 79.4402C300.4 79.4402 299.73 79.7103 299.24 80.2505C298.75 80.7907 298.5 81.5309 298.5 82.4812C298.5 83.4316 298.75 84.1618 299.24 84.702C299.73 85.2422 300.41 85.5223 301.29 85.5223ZM308.54 87.1929V79.9404H307.46V77.7896H309.69V79.2801H310.35C310.68 78.75 311.13 78.3398 311.69 78.0497C312.25 77.7596 312.92 77.6196 313.72 77.6196C314.97 77.6196 315.95 77.9697 316.66 78.6799C317.37 79.3802 317.72 80.3305 317.72 81.5109V87.2029H315.59V81.891C315.59 81.1208 315.38 80.5306 314.97 80.1204C314.56 79.7103 313.95 79.5102 313.14 79.5102C312.33 79.5102 311.72 79.7103 311.31 80.1204C310.9 80.5306 310.68 81.1208 310.68 81.891V87.2029H308.55L308.54 87.1929ZM322.59 87.1929C322.02 87.1929 321.57 87.0428 321.25 86.7527C320.93 86.4626 320.77 86.0125 320.77 85.4223V79.4502H319.08V77.7896H320.79V74.9687H322.89V77.7896H325.22V79.4502H322.9V85.5123H325.45V87.1929H322.58H322.59ZM327.69 87.1929V79.9404H326.61V77.7896H328.83V79.5903H329.49C329.74 78.97 330.14 78.4999 330.69 78.1798C331.24 77.8597 331.87 77.6896 332.58 77.6896H333.36V79.5202H332.48C331.59 79.5202 330.92 79.7803 330.47 80.2905C330.02 80.8007 329.79 81.4909 329.79 82.3412V87.1829H327.69V87.1929ZM338.83 87.3729C337.84 87.3729 336.97 87.1729 336.24 86.7727C335.5 86.3726 334.93 85.8024 334.52 85.0721C334.11 84.3419 333.91 83.4816 333.91 82.4812C333.91 81.4809 334.11 80.6306 334.51 79.8904C334.91 79.1601 335.48 78.5899 336.23 78.1898C336.97 77.7896 337.84 77.5896 338.85 77.5896C339.86 77.5896 340.74 77.7896 341.47 78.1898C342.2 78.5899 342.77 79.1501 343.16 79.8804C343.56 80.6106 343.75 81.4809 343.75 82.4812C343.75 83.4816 343.55 84.3419 343.16 85.0721C342.76 85.8124 342.2 86.3726 341.46 86.7727C340.72 87.1729 339.85 87.3729 338.84 87.3729H338.83ZM338.83 85.5223C339.72 85.5223 340.4 85.2522 340.89 84.702C341.38 84.1618 341.62 83.4216 341.62 82.4812C341.62 81.5409 341.38 80.7707 340.89 80.2405C340.4 79.7103 339.72 79.4402 338.83 79.4402C337.94 79.4402 337.27 79.7103 336.78 80.2505C336.29 80.7907 336.04 81.5309 336.04 82.4812C336.04 83.4316 336.29 84.1618 336.78 84.702C337.27 85.2422 337.95 85.5223 338.83 85.5223ZM345.63 87.1929V74.0283H347.76V87.1929H345.63ZM354.56 87.3729C353.57 87.3729 352.7 87.1729 351.97 86.7727C351.23 86.3726 350.66 85.8024 350.25 85.0721C349.84 84.3419 349.64 83.4816 349.64 82.4812C349.64 81.4809 349.84 80.6306 350.24 79.8904C350.64 79.1601 351.21 78.5899 351.96 78.1898C352.7 77.7896 353.57 77.5896 354.58 77.5896C355.59 77.5896 356.47 77.7896 357.2 78.1898C357.93 78.5899 358.5 79.1501 358.89 79.8804C359.29 80.6106 359.48 81.4809 359.48 82.4812C359.48 83.4816 359.28 84.3419 358.89 85.0721C358.49 85.8124 357.93 86.3726 357.19 86.7727C356.45 87.1729 355.58 87.3729 354.57 87.3729H354.56ZM354.56 85.5223C355.45 85.5223 356.13 85.2522 356.62 84.702C357.11 84.1618 357.35 83.4216 357.35 82.4812C357.35 81.5409 357.11 80.7707 356.62 80.2405C356.13 79.7103 355.45 79.4402 354.56 79.4402C353.67 79.4402 353 79.7103 352.51 80.2505C352.02 80.7907 351.77 81.5309 351.77 82.4812C351.77 83.4316 352.02 84.1618 352.51 84.702C353 85.2422 353.68 85.5223 354.56 85.5223ZM361.98 87.3729C361.59 87.3729 361.27 87.2329 361 86.9628C360.73 86.6927 360.6 86.3626 360.6 85.9724C360.6 85.5823 360.73 85.2522 361 84.9821C361.27 84.712 361.59 84.572 361.98 84.572C362.37 84.572 362.7 84.712 362.97 84.9821C363.24 85.2522 363.38 85.5823 363.38 85.9724C363.38 86.3626 363.24 86.6927 362.97 86.9628C362.7 87.2329 362.37 87.3729 361.98 87.3729ZM370.19 87.1929V74.4985H373.24L377.35 84.1718H377.41L381.53 74.4985H384.57V87.1929H382.39V77.3395H382.33L378.22 87.1929H376.4L372.28 77.3195H372.22V87.1929H370.18H370.19ZM391.56 87.3729C390.57 87.3729 389.7 87.1729 388.97 86.7727C388.23 86.3726 387.67 85.8024 387.27 85.0521C386.87 84.3019 386.67 83.4416 386.67 82.4512C386.67 81.4609 386.87 80.6006 387.26 79.8703C387.65 79.1401 388.21 78.5799 388.93 78.1898C389.65 77.7896 390.5 77.5896 391.48 77.5896C392.46 77.5896 393.23 77.7796 393.91 78.1498C394.59 78.5199 395.11 79.0501 395.48 79.7303C395.85 80.4105 396.04 81.2308 396.04 82.1711V82.9514H388.71C388.79 83.8117 389.08 84.4719 389.57 84.9321C390.06 85.3922 390.72 85.6323 391.54 85.6323C392.15 85.6323 392.64 85.5223 393.03 85.2922C393.42 85.0621 393.68 84.722 393.83 84.2619H395.99C395.76 85.2422 395.26 86.0125 394.48 86.5626C393.7 87.1128 392.73 87.3829 391.56 87.3829V87.3729ZM388.77 81.4709H394C393.92 80.7807 393.66 80.2505 393.22 79.8804C392.78 79.5102 392.2 79.3202 391.48 79.3202C390.76 79.3202 390.16 79.5102 389.69 79.8804C389.22 80.2505 388.91 80.7807 388.77 81.4709ZM398.38 87.1929V79.9404H397.3V77.7896H399.53V79.2801H400.19C400.52 78.75 400.97 78.3398 401.53 78.0497C402.09 77.7596 402.76 77.6196 403.56 77.6196C404.81 77.6196 405.79 77.9697 406.5 78.6799C407.21 79.3802 407.56 80.3305 407.56 81.5109V87.2029H405.43V81.891C405.43 81.1208 405.22 80.5306 404.81 80.1204C404.4 79.7103 403.79 79.5102 402.98 79.5102C402.17 79.5102 401.56 79.7103 401.15 80.1204C400.74 80.5306 400.52 81.1208 400.52 81.891V87.2029H398.39L398.38 87.1929ZM414.2 87.3729C413.21 87.3729 412.34 87.1729 411.61 86.7727C410.87 86.3726 410.3 85.8024 409.89 85.0721C409.48 84.3419 409.28 83.4816 409.28 82.4812C409.28 81.4809 409.48 80.6306 409.88 79.8904C410.28 79.1601 410.85 78.5899 411.6 78.1898C412.34 77.7896 413.21 77.5896 414.22 77.5896C415.23 77.5896 416.11 77.7896 416.84 78.1898C417.57 78.5899 418.14 79.1501 418.53 79.8804C418.93 80.6106 419.12 81.4809 419.12 82.4812C419.12 83.4816 418.92 84.3419 418.53 85.0721C418.13 85.8124 417.57 86.3726 416.83 86.7727C416.09 87.1729 415.22 87.3729 414.21 87.3729H414.2ZM414.2 85.5223C415.09 85.5223 415.77 85.2522 416.26 84.702C416.75 84.1618 416.99 83.4216 416.99 82.4812C416.99 81.5409 416.75 80.7707 416.26 80.2405C415.77 79.7103 415.09 79.4402 414.2 79.4402C413.31 79.4402 412.64 79.7103 412.15 80.2505C411.66 80.7907 411.41 81.5309 411.41 82.4812C411.41 83.4316 411.66 84.1618 412.15 84.702C412.64 85.2422 413.32 85.5223 414.2 85.5223ZM424.79 87.3729C423.45 87.3729 422.4 87.0928 421.62 86.5326C420.85 85.9724 420.42 85.1922 420.35 84.1918H422.43C422.5 84.702 422.74 85.0821 423.14 85.3322C423.54 85.5823 424.11 85.7124 424.86 85.7124C426.16 85.7124 426.8 85.3222 426.8 84.552C426.8 84.2418 426.7 83.9918 426.5 83.8117C426.3 83.6316 425.97 83.5016 425.51 83.4216L423.43 83.0314C421.62 82.6913 420.72 81.831 420.72 80.4606C420.72 79.5803 421.06 78.89 421.75 78.3698C422.44 77.8497 423.38 77.5896 424.59 77.5896C425.8 77.5896 426.77 77.8597 427.48 78.3898C428.19 78.92 428.6 79.6603 428.68 80.6106H426.63C426.52 80.1304 426.29 79.7703 425.95 79.5402C425.61 79.3102 425.12 79.2001 424.49 79.2001C423.93 79.2001 423.49 79.2901 423.19 79.4802C422.89 79.6703 422.74 79.9404 422.74 80.2905C422.74 80.5506 422.84 80.7607 423.03 80.9207C423.22 81.0808 423.53 81.2108 423.95 81.2908L426.05 81.701C427 81.881 427.7 82.1811 428.13 82.6213C428.57 83.0514 428.79 83.6416 428.79 84.3719C428.79 85.3122 428.45 86.0425 427.76 86.5727C427.07 87.1028 426.08 87.3629 424.8 87.3629L424.79 87.3729ZM435.56 90.9542V79.9404H434.48V77.7896H436.71V79.2801H437.37C437.68 78.74 438.12 78.3198 438.67 78.0297C439.22 77.7396 439.89 77.5996 440.66 77.5996C441.61 77.5996 442.42 77.7996 443.08 78.1998C443.74 78.5999 444.25 79.1701 444.6 79.9004C444.95 80.6306 445.12 81.4909 445.12 82.4913C445.12 83.4916 444.95 84.3519 444.61 85.0821C444.27 85.8224 443.78 86.3826 443.14 86.7827C442.5 87.1829 441.73 87.3829 440.83 87.3829C440.12 87.3829 439.5 87.2429 438.97 86.9628C438.44 86.6827 438.04 86.2926 437.76 85.7824H437.7V90.9542H435.57H435.56ZM440.27 85.5423C441.15 85.5423 441.82 85.2722 442.28 84.732C442.74 84.1918 442.98 83.4416 442.98 82.4913C442.98 81.5409 442.75 80.7907 442.28 80.2505C441.81 79.7103 441.14 79.4402 440.27 79.4402C439.49 79.4402 438.86 79.6603 438.39 80.1104C437.92 80.5606 437.68 81.1608 437.68 81.9311V83.0614C437.68 83.8217 437.92 84.4319 438.39 84.8821C438.86 85.3322 439.49 85.5523 440.27 85.5523V85.5423ZM451.29 87.3729C450.3 87.3729 449.43 87.1729 448.7 86.7727C447.96 86.3726 447.4 85.8024 447 85.0521C446.6 84.3019 446.4 83.4416 446.4 82.4512C446.4 81.4609 446.6 80.6006 446.99 79.8703C447.38 79.1401 447.94 78.5799 448.66 78.1898C449.38 77.7896 450.23 77.5896 451.21 77.5896C452.19 77.5896 452.96 77.7796 453.64 78.1498C454.32 78.5199 454.84 79.0501 455.21 79.7303C455.58 80.4105 455.77 81.2308 455.77 82.1711V82.9514H448.44C448.52 83.8117 448.81 84.4719 449.3 84.9321C449.79 85.3922 450.45 85.6323 451.27 85.6323C451.88 85.6323 452.37 85.5223 452.76 85.2922C453.15 85.0621 453.41 84.722 453.56 84.2619H455.72C455.49 85.2422 454.99 86.0125 454.21 86.5626C453.43 87.1128 452.46 87.3829 451.29 87.3829V87.3729ZM448.5 81.4709H453.73C453.65 80.7807 453.39 80.2505 452.95 79.8804C452.51 79.5102 451.93 79.3202 451.21 79.3202C450.49 79.3202 449.89 79.5102 449.42 79.8804C448.95 80.2505 448.64 80.7807 448.5 81.4709ZM458.26 87.1929V79.9404H457.18V77.7896H459.4V79.5903H460.06C460.31 78.97 460.71 78.4999 461.26 78.1798C461.81 77.8597 462.44 77.6896 463.15 77.6896H463.93V79.5202H463.05C462.16 79.5202 461.49 79.7803 461.04 80.2905C460.59 80.8007 460.36 81.4909 460.36 82.3412V87.1829H458.26V87.1929ZM468.94 87.3729C467.99 87.3729 467.18 87.1729 466.51 86.7727C465.84 86.3726 465.34 85.8024 464.99 85.0721C464.65 84.3419 464.47 83.4816 464.47 82.4812C464.47 81.4809 464.64 80.6206 464.98 79.8904C465.32 79.1501 465.81 78.5899 466.45 78.1898C467.09 77.7896 467.86 77.5896 468.75 77.5896C469.48 77.5896 470.11 77.7296 470.63 78.0097C471.15 78.2898 471.55 78.6799 471.84 79.1901H471.9V74.0183H474.03V85.0321H475.1V87.1829H472.89V85.6924H472.23C471.91 86.2325 471.47 86.6527 470.92 86.9428C470.37 87.2329 469.71 87.3729 468.94 87.3729ZM469.3 85.5423C470.09 85.5423 470.73 85.3222 471.2 84.8721C471.67 84.4219 471.91 83.8217 471.91 83.0514V81.9211C471.91 81.1608 471.67 80.5506 471.2 80.1004C470.73 79.6503 470.1 79.4302 469.3 79.4302C468.43 79.4302 467.77 79.7003 467.3 80.2405C466.83 80.7807 466.6 81.5309 466.6 82.4812C466.6 83.4316 466.83 84.1818 467.3 84.722C467.77 85.2622 468.43 85.5323 469.3 85.5323V85.5423ZM479.79 87.3629C478.71 87.3629 477.87 87.0928 477.24 86.5626C476.62 86.0325 476.31 85.3322 476.31 84.4619C476.31 83.5916 476.62 82.8514 477.25 82.3512C477.88 81.851 478.77 81.6009 479.94 81.6009H482.92V81.2108C482.92 79.9604 482.21 79.3302 480.79 79.3302C479.59 79.3302 478.87 79.7603 478.63 80.6306H476.5C476.68 79.6603 477.14 78.91 477.89 78.3898C478.64 77.8697 479.61 77.6096 480.81 77.6096C482.16 77.6096 483.19 77.9197 483.9 78.5399C484.61 79.1601 484.97 80.0604 484.97 81.2408V85.0521H485.99V87.2029H483.78V85.7124H483.12C482.8 86.2325 482.36 86.6427 481.8 86.9328C481.25 87.2229 480.58 87.3729 479.79 87.3729V87.3629ZM480.1 85.7024C480.63 85.7024 481.11 85.6023 481.54 85.3922C481.97 85.1822 482.31 84.9021 482.55 84.552C482.8 84.2018 482.92 83.8117 482.92 83.3816V83.0815H480.05C478.9 83.0815 478.33 83.5116 478.33 84.3619C478.33 84.782 478.49 85.1021 478.8 85.3422C479.11 85.5823 479.55 85.6924 480.1 85.6924V85.7024ZM491.62 87.3729C490.28 87.3729 489.23 87.0928 488.45 86.5326C487.67 85.9724 487.25 85.1922 487.18 84.1918H489.26C489.33 84.702 489.57 85.0821 489.97 85.3322C490.37 85.5823 490.94 85.7124 491.69 85.7124C492.99 85.7124 493.63 85.3222 493.63 84.552C493.63 84.2418 493.53 83.9918 493.33 83.8117C493.13 83.6316 492.8 83.5016 492.34 83.4216L490.26 83.0314C488.45 82.6913 487.55 81.831 487.55 80.4606C487.55 79.5803 487.89 78.89 488.58 78.3698C489.27 77.8497 490.21 77.5896 491.42 77.5896C492.63 77.5896 493.6 77.8597 494.31 78.3898C495.02 78.92 495.43 79.6603 495.51 80.6106H493.46C493.35 80.1304 493.12 79.7703 492.78 79.5402C492.44 79.3102 491.95 79.2001 491.32 79.2001C490.76 79.2001 490.32 79.2901 490.02 79.4802C489.72 79.6703 489.57 79.9404 489.57 80.2905C489.57 80.5506 489.67 80.7607 489.86 80.9207C490.05 81.0808 490.36 81.2108 490.78 81.2908L492.88 81.701C493.83 81.881 494.53 82.1811 494.96 82.6213C495.4 83.0514 495.62 83.6416 495.62 84.3719C495.62 85.3122 495.28 86.0425 494.59 86.5727C493.9 87.1028 492.91 87.3629 491.63 87.3629L491.62 87.3729ZM498.31 87.3729C497.92 87.3729 497.6 87.2329 497.33 86.9628C497.06 86.6927 496.93 86.3626 496.93 85.9724C496.93 85.5823 497.06 85.2522 497.33 84.9821C497.6 84.712 497.92 84.572 498.31 84.572C498.7 84.572 499.03 84.712 499.3 84.9821C499.57 85.2522 499.71 85.5823 499.71 85.9724C499.71 86.3626 499.57 86.6927 499.3 86.9628C499.03 87.2329 498.7 87.3729 498.31 87.3729Z" fill="#152661"/>
</g>
<defs>
<clipPath id="clip0_25_456">
<rect width="499.71" height="101.965" fill="white"/>
</clipPath>
</defs>
</svg>
