<svg width="500" height="234" viewBox="0 0 500 234" fill="none" xmlns="http://www.w3.org/2000/svg">
<g clip-path="url(#clip0_25_405)">
<path d="M246.7 65.6C254.045 65.6 260 59.6454 260 52.3C260 44.9546 254.045 39 246.7 39C239.355 39 233.4 44.9546 233.4 52.3C233.4 59.6454 239.355 65.6 246.7 65.6Z" fill="white"/>
<path d="M230.8 24.4C235.881 24.4 240 20.281 240 15.2C240 10.119 235.881 6 230.8 6C225.719 6 221.6 10.119 221.6 15.2C221.6 20.281 225.719 24.4 230.8 24.4Z" fill="white"/>
<path d="M244 88.2C248.75 88.2 252.6 84.3496 252.6 79.6C252.6 74.8503 248.75 71 244 71C239.25 71 235.4 74.8503 235.4 79.6C235.4 84.3496 239.25 88.2 244 88.2Z" fill="white"/>
<path d="M207.5 64.3C219.429 64.3 229.1 54.6294 229.1 42.7C229.1 30.7706 219.429 21.1 207.5 21.1C195.571 21.1 185.9 30.7706 185.9 42.7C185.9 54.6294 195.571 64.3 207.5 64.3Z" fill="white"/>
<path d="M264 37.8C274.438 37.8 282.9 29.3382 282.9 18.9C282.9 8.46182 274.438 0 264 0C253.562 0 245.1 8.46182 245.1 18.9C245.1 29.3382 253.562 37.8 264 37.8Z" fill="white"/>
<path d="M286 105.4C301.519 105.4 314.1 92.8192 314.1 77.3C314.1 61.7808 301.519 49.2 286 49.2C270.481 49.2 257.9 61.7808 257.9 77.3C257.9 92.8192 270.481 105.4 286 105.4Z" fill="white"/>
<path d="M228 73.1C230.761 73.1 233 70.8614 233 68.1C233 65.3386 230.761 63.1 228 63.1C225.239 63.1 223 65.3386 223 68.1C223 70.8614 225.239 73.1 228 73.1Z" fill="white"/>
<path d="M237.1 34.9C239.475 34.9 241.4 32.9748 241.4 30.6C241.4 28.2252 239.475 26.3 237.1 26.3C234.725 26.3 232.8 28.2252 232.8 30.6C232.8 32.9748 234.725 34.9 237.1 34.9Z" fill="white"/>
<path d="M267.4 49.5C269.333 49.5 270.9 47.933 270.9 46C270.9 44.067 269.333 42.5 267.4 42.5C265.467 42.5 263.9 44.067 263.9 46C263.9 47.933 265.467 49.5 267.4 49.5Z" fill="white"/>
<path d="M226.6 86.3C228.588 86.3 230.2 84.6882 230.2 82.7C230.2 80.7118 228.588 79.1 226.6 79.1C224.612 79.1 223 80.7118 223 82.7C223 84.6882 224.612 86.3 226.6 86.3Z" fill="white"/>
<path d="M55.4 156.4H33.6V165.7H53.5V169.2C53.5 171.8 52.7 174.2 51 176.3C49.3 178.4 47.1 180 44.3 181.2C41.5 182.4 38.3 183 34.8 183C31.3 183 26.3 181.9 22.8 179.8C19.4 177.7 16.7 174.8 14.8 171C12.9 167.2 11.9 162.8 11.9 157.6C11.9 152.4 12.9 148.1 14.8 144.4C16.7 140.6 19.4 137.8 22.8 135.7C26.3 133.7 30.3 132.7 35 132.7C39.7 132.7 44 133.8 47 136C50.1 138.2 52 141.3 52.7 145.4H64.9C64.1 140.6 62.4 136.5 59.7 133.1C57 129.7 53.6 127.1 49.4 125.3C45.2 123.5 40.4 122.6 34.9 122.6C29.4 122.6 21.8 124.1 16.6 127C11.4 129.9 7.3 134 4.4 139.3C1.5 144.6 0 150.7 0 157.8C0 164.9 1.4 171 4.2 176.3C7 181.6 10.9 185.7 15.9 188.6C20.9 191.5 26.7 193 33.3 193C39.9 193 42.3 192.1 45.9 190.3C49.5 188.5 52 186.1 53.5 182.9H53.9V192.9H64.9V165.6C64.9 162.7 64.1 160.4 62.5 158.9C60.9 157.4 58.5 156.6 55.4 156.6V156.4ZM169.3 167.2C166.9 164.9 163.2 163.2 158.1 162.3L146.8 160.1C144.5 159.7 142.9 159 141.9 158.1C140.9 157.2 140.3 156.1 140.3 154.7C140.3 153.3 141.1 151.3 142.7 150.3C144.3 149.3 146.7 148.8 149.7 148.8C152.7 148.8 155.7 149.4 157.6 150.7C159.4 151.9 160.6 153.8 161.3 156.4H172.3C171.9 151.3 169.7 147.3 165.9 144.4C162.1 141.5 156.9 140.1 150.4 140.1C143.9 140.1 138.9 141.5 135.2 144.3C131.5 147.1 129.6 150.8 129.6 155.5C129.6 162.9 134.5 167.5 144.2 169.3L155.4 171.4C157.9 171.8 159.6 172.6 160.7 173.5C161.8 174.5 162.3 175.8 162.3 177.5C162.3 181.7 158.8 183.7 151.9 183.7C145 183.7 144.8 183 142.6 181.7C140.5 180.4 139.2 178.3 138.8 175.5H127.6C128 180.9 130.3 185.1 134.4 188.1C138.6 191.1 144.2 192.6 151.4 192.6C158.6 192.6 163.6 191.2 167.3 188.3C171 185.5 172.9 181.5 172.9 176.5C172.9 171.5 171.7 169.4 169.4 167.1L169.3 167.2ZM121.4 164.7C121.4 159.6 120.4 155.3 118.4 151.6C116.4 147.9 113.6 145.1 109.9 143.1C106.2 141.1 101.9 140.1 96.8 140.1C91.7 140.1 86.9 141.2 83.1 143.3C79.2 145.4 76.2 148.5 74.1 152.4C72 156.3 70.9 160.9 70.9 166.3C70.9 171.7 72 176.3 74.1 180.3C76.2 184.3 79.3 187.4 83.2 189.5C87.1 191.6 91.8 192.7 97.1 192.7C102.4 192.7 108.6 191.2 112.8 188.3C117 185.4 119.7 181.2 120.9 176H109.3C108.5 178.5 107.1 180.3 105 181.6C102.9 182.8 100.3 183.5 97 183.5C93.7 183.5 89 182.3 86.4 179.8C83.8 177.3 82.2 173.7 81.8 169.1H121.2V164.9L121.4 164.7ZM93.3 160.9C84 160.9 81.8 163.6 81.8 163.6C81.8 162.7 82.2 161 82.4 160.2C82.4 160 82.4 159.9 82.5 159.8C83.4 156.7 84.9 154.2 87.2 152.4C89.7 150.4 92.9 149.4 96.8 149.4C100.7 149.4 103.8 150.4 106.1 152.4C108.5 154.4 109.9 157.2 110.3 160.9H93.2H93.3ZM82.6 159.8C82.6 159.9 82.6 160.1 82.5 160.2C82.5 159.9 82.6 159.8 82.6 159.8ZM213.2 148.9V140.9C212.3 140.9 211.3 140.9 210.2 140.9C200.9 140.9 198.7 143.6 198.7 143.6C198.7 142.4 199.5 139.7 199.5 139.7V126.9H188.2V139.9H179V148.8H188.1V183C188.1 186.2 189 188.6 190.7 190.2C192.4 191.8 194.8 192.6 197.9 192.6H213.3V183.6H201.6C200.5 183.6 199.6 182.7 199.6 181.6V148.9H213.3H213.2ZM284.1 159.6C281.1 156.5 276.4 154.3 270.1 153L256 150.1C249.3 148.8 246 145.7 246 141.1C246 136.5 247.2 135.8 249.6 134.2C252 132.6 255.3 131.8 259.5 131.8C268.8 131.8 274.2 135.6 275.9 143.3H288C287.3 136.7 284.5 131.6 279.5 127.9C274.5 124.2 268.1 122.4 260.1 122.4C252.1 122.4 245.9 124.2 241.3 127.7C236.7 131.2 234.4 136 234.4 142.1C234.4 148.2 236 150.8 239.1 153.9C242.2 157 246.8 159.2 253 160.4L266.5 163.1C270.1 163.8 272.8 165 274.5 166.6C276.2 168.2 277.1 170.3 277.1 172.9C277.1 175.5 275.8 178.8 273.2 180.5C270.6 182.2 266.9 183 261.9 183C256.9 183 251.9 181.9 248.8 179.8C245.6 177.7 243.9 174.6 243.6 170.5H231.5C232 177.5 234.9 182.9 240.2 186.8C245.5 190.7 252.6 192.7 261.6 192.7C270.6 192.7 276.8 190.9 281.5 187.3C286.3 183.7 288.6 178.6 288.6 172.1C288.6 165.6 287.1 162.8 284.1 159.6ZM384.9 152.4C382.8 148.5 379.7 145.4 375.8 143.3C371.9 141.2 367.2 140.1 361.7 140.1C356.2 140.1 351.6 141.2 347.6 143.3C343.6 145.5 340.5 148.5 338.4 152.4C336.2 156.3 335.2 161 335.2 166.3C335.2 171.6 336.3 176.3 338.5 180.2C340.7 184.1 343.8 187.2 347.7 189.3C351.6 191.4 356.3 192.5 361.6 192.5C366.9 192.5 371.7 191.4 375.7 189.3C379.7 187.2 382.7 184.1 384.8 180.2C386.9 176.2 388 171.6 388 166.3C388 161 386.9 156.2 384.8 152.3L384.9 152.4ZM372.7 178.4C370.1 181.3 366.4 182.8 361.6 182.8C356.8 182.8 353.2 181.3 350.6 178.4C348 175.5 346.6 171.5 346.6 166.4C346.6 161.3 347.9 157.3 350.6 154.4C353.2 151.5 356.9 150.1 361.6 150.1C366.3 150.1 370.1 151.5 372.7 154.4C375.3 157.3 376.6 161.3 376.6 166.4C376.6 171.5 375.3 175.4 372.7 178.4ZM432.4 175.1C430.5 180.2 426.4 182.7 420.1 182.7C413.8 182.7 412.2 181.3 409.6 178.4C407 175.5 405.7 171.5 405.7 166.4C405.7 161.3 407 157.2 409.6 154.4C412.2 151.5 415.7 150.1 420.1 150.1C424.5 150.1 426.1 150.8 428.2 152.2C430.1 153.5 431.5 155.3 432.3 157.6H443.9C442.6 152.2 439.9 148 435.9 145C431.7 141.8 426.4 140.2 420 140.2C413.6 140.2 410.2 141.3 406.4 143.4C402.5 145.6 399.5 148.6 397.4 152.5C395.3 156.4 394.2 161.1 394.2 166.4C394.2 171.7 395.3 176.4 397.4 180.3C399.6 184.2 402.6 187.3 406.4 189.4C410.3 191.6 414.8 192.6 420 192.6C425.2 192.6 432.1 190.9 436.3 187.6C440.1 184.6 442.7 180.4 444 175H432.3L432.4 175.1ZM329.1 148.9V140.9C328.3 140.9 327.3 140.9 326.2 140.9C316.9 140.9 314.7 143.6 314.7 143.6C314.7 142.6 315.3 140.5 315.4 139.9V126.9H304.1V139.9H294.9V148.8H304V183C304 186.2 304.9 188.6 306.6 190.2C308.3 191.8 310.7 192.6 313.8 192.6H329.2V183.6H317.5C316.4 183.6 315.5 182.7 315.5 181.6V148.9H329.2H329.1ZM475.7 162.4L498.1 142.2H484.3L462 162.9H461.7V122.5H450.2V192.8H461.7V174.5L467.9 169.4L486.4 192.7H500L475.7 162.4Z" fill="white"/>
<path d="M71 228.1V210.6H75.2L80.9 223.9L86.6 210.6H90.8V228.1H87.8V214.5L82.1 228.1H79.6L73.9 214.5V228.1H71Z" fill="white"/>
<path d="M98.5 228.3C97 228.3 95.8 227.9 95 227.2C94.1 226.5 93.7 225.5 93.7 224.3C93.7 223.1 94.1 222.1 95 221.4C95.9 220.7 97.1 220.4 98.7 220.4H102.8V219.9C102.8 218.2 101.8 217.3 99.9 217.3C98 217.3 97.2 217.9 96.9 219.1H94C94.2 217.8 94.9 216.7 95.9 216C96.9 215.3 98.3 214.9 99.9 214.9C101.5 214.9 103.2 215.3 104.2 216.2C105.2 217.1 105.7 218.3 105.7 219.9V225.1H107.1V228.1H104.1V226H103.2C102.8 226.7 102.1 227.3 101.4 227.7C100.6 228.1 99.7 228.3 98.6 228.3H98.5ZM98.9 226C99.6 226 100.3 225.9 100.9 225.6C101.5 225.3 102 224.9 102.3 224.4C102.6 223.9 102.8 223.4 102.8 222.8V222.4H98.8C97.2 222.4 96.4 223 96.4 224.2C96.4 225.4 96.6 225.2 97 225.5C97.4 225.8 98 226 98.8 226H98.9Z" fill="white"/>
<path d="M111.1 213.6C110.6 213.6 110.2 213.4 109.9 213.1C109.6 212.8 109.4 212.4 109.4 211.9C109.4 211.4 109.6 211 109.9 210.7C110.2 210.4 110.6 210.2 111.1 210.2C111.6 210.2 112 210.4 112.3 210.7C112.6 211 112.8 211.4 112.8 211.9C112.8 212.4 112.6 212.8 112.3 213.1C112 213.4 111.6 213.6 111.1 213.6ZM109.7 228.1V215.1H112.6V228.1H109.7Z" fill="white"/>
<path d="M121.2 228.3C119.4 228.3 117.9 227.9 116.8 227.1C115.7 226.3 115.2 225.3 115.1 223.9H118C118.1 224.6 118.4 225.1 119 225.5C119.5 225.8 120.3 226 121.4 226C123.2 226 124.1 225.5 124.1 224.4C124.1 223.3 124 223.6 123.7 223.4C123.4 223.2 123 223 122.3 222.9L119.4 222.4C116.9 221.9 115.7 220.7 115.7 218.9C115.7 217.1 116.2 216.7 117.1 216C118.1 215.3 119.4 214.9 121 214.9C122.6 214.9 124 215.3 125 216C126 216.7 126.5 217.8 126.7 219.1H123.9C123.7 218.4 123.4 217.9 123 217.6C122.5 217.3 121.9 217.1 121 217.1C120.1 217.1 119.6 217.2 119.2 217.5C118.8 217.8 118.6 218.1 118.6 218.6C118.6 219.1 118.7 219.3 119 219.5C119.3 219.7 119.7 219.9 120.3 220L123.2 220.6C124.5 220.8 125.5 221.3 126.1 221.9C126.7 222.5 127 223.3 127 224.3C127 225.3 126.5 226.6 125.6 227.3C124.6 228 123.3 228.4 121.5 228.4L121.2 228.3Z" fill="white"/>
<path d="M141.3 228.3C140 228.3 138.8 228 137.8 227.5C136.8 227 136 226.2 135.5 225.2C134.9 224.2 134.7 223 134.7 221.6C134.7 220.2 135 219 135.5 218C136 217 136.8 216.2 137.8 215.7C138.8 215.1 140 214.9 141.3 214.9C142.6 214.9 144.3 215.3 145.4 216.1C146.5 216.9 147.2 218.1 147.5 219.6H144.5C144.3 218.9 143.9 218.4 143.4 218C142.9 217.6 142.2 217.5 141.3 217.5C140.4 217.5 139.3 217.9 138.6 218.6C137.9 219.3 137.6 220.4 137.6 221.7C137.6 223 137.9 224.1 138.6 224.8C139.3 225.5 140.2 225.9 141.3 225.9C143.1 225.9 144.2 225.1 144.6 223.5H147.6C147.3 225.1 146.6 226.3 145.5 227.1C144.4 227.9 143 228.4 141.3 228.4V228.3Z" fill="white"/>
<path d="M155.4 228.3C154 228.3 152.8 228 151.8 227.5C150.8 226.9 150 226.2 149.4 225.2C148.8 224.2 148.6 223 148.6 221.6C148.6 220.2 148.9 219 149.4 218C150 217 150.7 216.2 151.8 215.7C152.8 215.1 154 214.9 155.4 214.9C156.8 214.9 158 215.2 159 215.7C160 216.2 160.8 217 161.3 218C161.8 219 162.1 220.2 162.1 221.6C162.1 223 161.8 224.2 161.3 225.2C160.8 226.2 160 227 159 227.5C158 228 156.8 228.3 155.4 228.3ZM155.4 225.8C156.6 225.8 157.6 225.4 158.2 224.7C158.9 224 159.2 222.9 159.2 221.6C159.2 220.3 158.9 219.2 158.2 218.5C157.5 217.8 156.6 217.4 155.4 217.4C154.2 217.4 153.2 217.8 152.6 218.5C151.9 219.2 151.6 220.3 151.6 221.6C151.6 222.9 151.9 223.9 152.6 224.7C153.3 225.4 154.2 225.8 155.4 225.8Z" fill="white"/>
<path d="M165.4 228.1V218.1H163.9V215.1H167V217.2H167.9C168.4 216.5 169 215.9 169.7 215.5C170.5 215.1 171.4 214.9 172.5 214.9C174.2 214.9 175.6 215.4 176.5 216.4C177.5 217.4 178 218.7 178 220.3V228.1H175.1V220.8C175.1 219.7 174.8 218.9 174.2 218.4C173.6 217.8 172.8 217.6 171.7 217.6C170.6 217.6 169.7 217.9 169.2 218.4C168.6 219 168.3 219.8 168.3 220.8V228.1H165.4Z" fill="white"/>
<path d="M184.8 228.1C184 228.1 183.4 227.9 183 227.5C182.6 227.1 182.3 226.5 182.3 225.7V217.5H180V215.2H182.4V211.3H185.3V215.2H188.5V217.5H185.3V225.9H188.8V228.2H184.8V228.1Z" fill="white"/>
<path d="M191.8 228.1V218.1H190.3V215.1H193.4V217.6H194.3C194.6 216.8 195.2 216.1 196 215.7C196.8 215.3 197.6 215 198.6 215H199.7V217.5H198.5C197.3 217.5 196.4 217.9 195.7 218.6C195.1 219.3 194.8 220.2 194.8 221.4V228.1H191.8Z" fill="white"/>
<path d="M207.2 228.3C205.8 228.3 204.6 228 203.6 227.5C202.6 226.9 201.8 226.2 201.2 225.2C200.6 224.2 200.4 223 200.4 221.6C200.4 220.2 200.7 219 201.2 218C201.8 217 202.5 216.2 203.6 215.7C204.6 215.1 205.8 214.9 207.2 214.9C208.6 214.9 209.8 215.2 210.8 215.7C211.8 216.2 212.6 217 213.1 218C213.6 219 213.9 220.2 213.9 221.6C213.9 223 213.6 224.2 213.1 225.2C212.6 226.2 211.8 227 210.8 227.5C209.8 228 208.6 228.3 207.2 228.3ZM207.2 225.8C208.4 225.8 209.4 225.4 210 224.7C210.7 224 211 222.9 211 221.6C211 220.3 210.7 219.2 210 218.5C209.3 217.8 208.4 217.4 207.2 217.4C206 217.4 205 217.8 204.4 218.5C203.7 219.2 203.4 220.3 203.4 221.6C203.4 222.9 203.7 223.9 204.4 224.7C205.1 225.4 206 225.8 207.2 225.8Z" fill="white"/>
<path d="M216.6 228.1V210H219.5V228.1H216.6Z" fill="white"/>
<path d="M228.9 228.3C227.5 228.3 226.3 228 225.3 227.5C224.3 226.9 223.5 226.2 222.9 225.2C222.3 224.2 222.1 223 222.1 221.6C222.1 220.2 222.4 219 222.9 218C223.5 217 224.2 216.2 225.3 215.7C226.3 215.1 227.5 214.9 228.9 214.9C230.3 214.9 231.5 215.2 232.5 215.7C233.5 216.2 234.3 217 234.8 218C235.3 219 235.6 220.2 235.6 221.6C235.6 223 235.3 224.2 234.8 225.2C234.3 226.2 233.5 227 232.5 227.5C231.5 228 230.3 228.3 228.9 228.3ZM228.9 225.8C230.1 225.8 231.1 225.4 231.7 224.7C232.4 224 232.7 222.9 232.7 221.6C232.7 220.3 232.4 219.2 231.7 218.5C231 217.8 230.1 217.4 228.9 217.4C227.7 217.4 226.7 217.8 226.1 218.5C225.4 219.2 225.1 220.3 225.1 221.6C225.1 222.9 225.4 223.9 226.1 224.7C226.8 225.4 227.7 225.8 228.9 225.8Z" fill="white"/>
<path d="M239.1 228.3C238.6 228.3 238.1 228.1 237.7 227.7C237.3 227.3 237.1 226.9 237.1 226.3C237.1 225.7 237.3 225.3 237.7 224.9C238.1 224.5 238.5 224.3 239.1 224.3C239.7 224.3 240.1 224.5 240.5 224.9C240.9 225.3 241.1 225.7 241.1 226.3C241.1 226.9 240.9 227.3 240.5 227.7C240.1 228.1 239.7 228.3 239.1 228.3Z" fill="white"/>
<path d="M250.4 228.1V210.6H254.6L260.3 223.9L266 210.6H270.2V228.1H267.2V214.5L261.5 228.1H259L253.3 214.5V228.1H250.4Z" fill="white"/>
<path d="M279.9 228.3C278.5 228.3 277.3 228 276.3 227.5C275.3 226.9 274.5 226.2 274 225.1C273.5 224.1 273.2 222.9 273.2 221.5C273.2 220.1 273.5 218.9 274 217.9C274.5 216.9 275.3 216.1 276.3 215.6C277.3 215.1 278.5 214.8 279.8 214.8C281.1 214.8 282.2 215.1 283.1 215.6C284 216.1 284.8 216.8 285.3 217.8C285.8 218.7 286.1 219.9 286.1 221.2V222.3H276C276.1 223.5 276.5 224.4 277.2 225C277.9 225.6 278.8 226 279.9 226C281 226 281.4 225.8 282 225.5C282.6 225.2 282.9 224.7 283.1 224.1H286.1C285.8 225.5 285.1 226.5 284 227.3C282.9 228.1 281.6 228.4 280 228.4L279.9 228.3ZM283.2 220.2C283.1 219.2 282.7 218.5 282.1 218C281.5 217.5 280.7 217.2 279.7 217.2C278.7 217.2 277.9 217.5 277.2 218C276.6 218.5 276.1 219.2 275.9 220.2H283.2Z" fill="white"/>
<path d="M289.3 228.1V218.1H287.8V215.1H290.9V217.2H291.8C292.3 216.5 292.9 215.9 293.6 215.5C294.4 215.1 295.3 214.9 296.4 214.9C298.1 214.9 299.5 215.4 300.4 216.4C301.4 217.4 301.9 218.7 301.9 220.3V228.1H299V220.8C299 219.7 298.7 218.9 298.1 218.4C297.5 217.8 296.7 217.6 295.6 217.6C294.5 217.6 293.6 217.9 293.1 218.4C292.6 218.9 292.2 219.8 292.2 220.8V228.1H289.3Z" fill="white"/>
<path d="M311.1 228.3C309.7 228.3 308.5 228 307.5 227.5C306.5 226.9 305.7 226.2 305.1 225.2C304.5 224.2 304.3 223 304.3 221.6C304.3 220.2 304.6 219 305.1 218C305.7 217 306.4 216.2 307.5 215.7C308.5 215.1 309.7 214.9 311.1 214.9C312.5 214.9 313.7 215.2 314.7 215.7C315.7 216.2 316.5 217 317 218C317.5 219 317.8 220.2 317.8 221.6C317.8 223 317.5 224.2 317 225.2C316.5 226.2 315.7 227 314.7 227.5C313.7 228 312.5 228.3 311.1 228.3ZM311.1 225.8C312.3 225.8 313.3 225.4 313.9 224.7C314.6 224 314.9 222.9 314.9 221.6C314.9 220.3 314.6 219.2 313.9 218.5C313.2 217.8 312.3 217.4 311.1 217.4C309.9 217.4 308.9 217.8 308.3 218.5C307.6 219.2 307.3 220.3 307.3 221.6C307.3 222.9 307.6 223.9 308.3 224.7C309 225.4 309.9 225.8 311.1 225.8Z" fill="white"/>
<path d="M325.7 228.3C323.9 228.3 322.4 227.9 321.3 227.1C320.2 226.3 319.7 225.3 319.6 223.9H322.5C322.6 224.6 322.9 225.1 323.5 225.5C324 225.8 324.8 226 325.9 226C327.7 226 328.6 225.5 328.6 224.4C328.6 223.3 328.5 223.6 328.2 223.4C327.9 223.2 327.5 223 326.8 222.9L323.9 222.4C321.4 221.9 320.2 220.7 320.2 218.9C320.2 217.1 320.7 216.7 321.6 216C322.6 215.3 323.9 214.9 325.5 214.9C327.1 214.9 328.5 215.3 329.5 216C330.5 216.7 331 217.8 331.2 219.1H328.4C328.2 218.4 327.9 217.9 327.5 217.6C327 217.3 326.4 217.1 325.5 217.1C324.6 217.1 324.1 217.2 323.7 217.5C323.3 217.8 323.1 218.1 323.1 218.6C323.1 219.1 323.2 219.3 323.5 219.5C323.8 219.7 324.2 219.9 324.8 220L327.7 220.6C329 220.8 330 221.3 330.6 221.9C331.2 222.5 331.5 223.3 331.5 224.3C331.5 225.3 331 226.6 330.1 227.3C329.1 228 327.8 228.4 326 228.4L325.7 228.3Z" fill="white"/>
<path d="M340.5 233.3V218.1H339V215.1H342.1V217.2H343C343.4 216.5 344 215.9 344.8 215.5C345.6 215.1 346.5 214.9 347.5 214.9C348.5 214.9 349.9 215.2 350.8 215.7C351.7 216.3 352.4 217 352.9 218C353.4 219 353.6 220.2 353.6 221.6C353.6 223 353.4 224.2 352.9 225.2C352.4 226.2 351.8 227 350.9 227.5C350 228 349 228.3 347.7 228.3C346.4 228.3 345.9 228.1 345.1 227.7C344.4 227.3 343.8 226.8 343.4 226.1V233.2H340.5V233.3ZM347 225.8C348.2 225.8 349.1 225.4 349.8 224.7C350.4 224 350.8 222.9 350.8 221.6C350.8 220.3 350.5 219.3 349.8 218.5C349.2 217.8 348.2 217.4 347 217.4C345.8 217.4 345.1 217.7 344.4 218.3C343.7 218.9 343.4 219.8 343.4 220.8V222.4C343.4 223.5 343.7 224.3 344.4 224.9C345.1 225.5 345.9 225.8 347 225.8Z" fill="white"/>
<path d="M362.2 228.3C360.8 228.3 359.6 228 358.6 227.5C357.6 226.9 356.8 226.2 356.3 225.1C355.8 224.1 355.5 222.9 355.5 221.5C355.5 220.1 355.8 218.9 356.3 217.9C356.8 216.9 357.6 216.1 358.6 215.6C359.6 215.1 360.8 214.8 362.1 214.8C363.4 214.8 364.5 215.1 365.4 215.6C366.3 216.1 367.1 216.8 367.6 217.8C368.1 218.7 368.4 219.9 368.4 221.2V222.3H358.3C358.4 223.5 358.8 224.4 359.5 225C360.2 225.6 361.1 226 362.2 226C363.3 226 363.7 225.8 364.3 225.5C364.9 225.2 365.2 224.7 365.4 224.1H368.4C368.1 225.5 367.4 226.5 366.3 227.3C365.2 228.1 363.9 228.4 362.3 228.4L362.2 228.3ZM365.6 220.2C365.5 219.2 365.1 218.5 364.5 218C363.9 217.5 363.1 217.2 362.1 217.2C361.1 217.2 360.3 217.5 359.6 218C359 218.5 358.5 219.2 358.3 220.2H365.6Z" fill="white"/>
<path d="M371.8 228.1V218.1H370.3V215.1H373.4V217.6H374.3C374.6 216.8 375.2 216.1 376 215.7C376.8 215.3 377.6 215 378.6 215H379.7V217.5H378.5C377.3 217.5 376.4 217.9 375.7 218.6C375 219.3 374.8 220.2 374.8 221.4V228.1H371.8Z" fill="white"/>
<path d="M386.6 228.3C385.3 228.3 384.2 228 383.3 227.5C382.4 226.9 381.7 226.2 381.2 225.2C380.7 224.2 380.5 223 380.5 221.6C380.5 220.2 380.7 219 381.2 218C381.7 217 382.3 216.2 383.2 215.7C384.1 215.2 385.1 214.9 386.4 214.9C387.7 214.9 388.3 215.1 389 215.5C389.7 215.9 390.3 216.4 390.7 217.1V210H393.6V225.2H395.1V228.2H392.1V226.1H391.2C390.8 226.8 390.2 227.4 389.4 227.8C388.6 228.2 387.7 228.4 386.7 228.4L386.6 228.3ZM387.1 225.8C388.2 225.8 389.1 225.5 389.7 224.9C390.3 224.3 390.7 223.4 390.7 222.4V220.8C390.7 219.7 390.4 218.9 389.7 218.3C389.1 217.7 388.2 217.4 387.1 217.4C386 217.4 385 217.8 384.3 218.5C383.6 219.2 383.3 220.3 383.3 221.6C383.3 222.9 383.6 223.9 384.3 224.7C384.9 225.4 385.9 225.8 387.1 225.8Z" fill="white"/>
<path d="M401.5 228.3C400 228.3 398.8 227.9 398 227.2C397.1 226.5 396.7 225.5 396.7 224.3C396.7 223.1 397.1 222.1 398 221.4C398.9 220.7 400.1 220.4 401.7 220.4H405.8V219.9C405.8 218.2 404.8 217.3 402.9 217.3C401 217.3 400.2 217.9 399.9 219.1H397C397.2 217.8 397.9 216.7 398.9 216C399.9 215.3 401.3 214.9 402.9 214.9C404.5 214.9 406.2 215.3 407.2 216.2C408.2 217.1 408.7 218.3 408.7 219.9V225.1H410.1V228.1H407.1V226H406.2C405.8 226.7 405.1 227.3 404.4 227.7C403.6 228.1 402.7 228.3 401.6 228.3H401.5ZM401.9 226C402.6 226 403.3 225.9 403.9 225.6C404.5 225.3 405 224.9 405.3 224.4C405.6 223.9 405.8 223.4 405.8 222.8V222.4H401.8C400.2 222.4 399.4 223 399.4 224.2C399.4 225.4 399.6 225.2 400 225.5C400.4 225.8 401 226 401.8 226H401.9Z" fill="white"/>
<path d="M417.8 228.3C416 228.3 414.5 227.9 413.4 227.1C412.3 226.3 411.8 225.3 411.7 223.9H414.6C414.7 224.6 415 225.1 415.6 225.5C416.1 225.8 416.9 226 418 226C419.8 226 420.7 225.5 420.7 224.4C420.7 223.3 420.6 223.6 420.3 223.4C420 223.2 419.6 223 418.9 222.9L416 222.4C413.5 221.9 412.3 220.7 412.3 218.9C412.3 217.1 412.8 216.7 413.7 216C414.7 215.3 416 214.9 417.6 214.9C419.2 214.9 420.6 215.3 421.6 216C422.6 216.7 423.1 217.8 423.3 219.1H420.5C420.3 218.4 420 217.9 419.6 217.6C419.1 217.3 418.5 217.1 417.6 217.1C416.7 217.1 416.2 217.2 415.8 217.5C415.4 217.8 415.2 218.1 415.2 218.6C415.2 219.1 415.3 219.3 415.6 219.5C415.9 219.7 416.3 219.9 416.9 220L419.8 220.6C421.1 220.8 422.1 221.3 422.7 221.9C423.3 222.5 423.6 223.3 423.6 224.3C423.6 225.3 423.1 226.6 422.2 227.3C421.2 228 419.9 228.4 418.1 228.4L417.8 228.3Z" fill="white"/>
<path d="M427 228.3C426.5 228.3 426 228.1 425.6 227.7C425.2 227.3 425 226.9 425 226.3C425 225.7 425.2 225.3 425.6 224.9C426 224.5 426.4 224.3 427 224.3C427.6 224.3 428 224.5 428.4 224.9C428.8 225.3 429 225.7 429 226.3C429 226.9 428.8 227.3 428.4 227.7C428 228.1 427.6 228.3 427 228.3Z" fill="white"/>
</g>
<defs>
<clipPath id="clip0_25_405">
<rect width="500" height="233.3" fill="white"/>
</clipPath>
</defs>
</svg>
